<svg id="visual" viewBox="0 0 960 540" width="960" height="540" xmlns="http://www.w3.org/2000/svg" xmlns:xlink="http://www.w3.org/1999/xlink" version="1.1"><g stroke-width="1" stroke-linejoin="bevel"><path d="M530.3 307L399.7 358L522.3 393Z" fill="#284e5a" stroke="#222"></path><path d="M399.7 358L428.7 436L522.3 393Z" fill="#242729" stroke="#222"></path><path d="M428.7 436L529.3 430L522.3 393Z" fill="#283d44" stroke="#222"></path><path d="M522.3 393L677 334L530.3 307Z" fill="#28424b" stroke="#222"></path><path d="M530.3 307L394.7 251L399.7 358Z" fill="#27373d" stroke="#222"></path><path d="M530.3 307L442.7 217L394.7 251Z" fill="#283d44" stroke="#222"></path><path d="M323 265L334 359L399.7 358Z" fill="#26596a" stroke="#222"></path><path d="M399.7 358L334 359L428.7 436Z" fill="#284e5a" stroke="#222"></path><path d="M530.3 307L493.3 204L442.7 217Z" fill="#283d44" stroke="#222"></path><path d="M318 208L323 265L394.7 251Z" fill="#284e5a" stroke="#222"></path><path d="M394.7 251L323 265L399.7 358Z" fill="#283d44" stroke="#222"></path><path d="M570.3 540L601 465L529.3 430Z" fill="#27373d" stroke="#222"></path><path d="M529.3 430L601 465L522.3 393Z" fill="#28424b" stroke="#222"></path><path d="M530.3 307L632 167L493.3 204Z" fill="#27373d" stroke="#222"></path><path d="M315 540L464.7 540L428.7 436Z" fill="#284853" stroke="#222"></path><path d="M428.7 436L464.7 540L529.3 430Z" fill="#242729" stroke="#222"></path><path d="M315 122L318 208L442.7 217Z" fill="#242729" stroke="#222"></path><path d="M442.7 217L318 208L394.7 251Z" fill="#284853" stroke="#222"></path><path d="M173.3 364L281 425L334 359Z" fill="#284853" stroke="#222"></path><path d="M334 359L281 425L428.7 436Z" fill="#284e5a" stroke="#222"></path><path d="M247.3 242L334 359L323 265Z" fill="#263236" stroke="#222"></path><path d="M601 465L677 334L522.3 393Z" fill="#283d44" stroke="#222"></path><path d="M464.7 540L570.3 540L529.3 430Z" fill="#222222" stroke="#222"></path><path d="M766.7 457L779.7 383L677 334Z" fill="#284853" stroke="#222"></path><path d="M677 334L672 244L530.3 307Z" fill="#242729" stroke="#222"></path><path d="M672 244L632 167L530.3 307Z" fill="#222222" stroke="#222"></path><path d="M493.3 204L405.7 80L442.7 217Z" fill="#27373d" stroke="#222"></path><path d="M318 208L247.3 242L323 265Z" fill="#275362" stroke="#222"></path><path d="M281 425L315 540L428.7 436Z" fill="#275362" stroke="#222"></path><path d="M632 167L527.3 100L493.3 204Z" fill="#283d44" stroke="#222"></path><path d="M318 208L236.3 142L247.3 242Z" fill="#26596a" stroke="#222"></path><path d="M570.3 540L632 540L601 465Z" fill="#26596a" stroke="#222"></path><path d="M405.7 80L315 122L442.7 217Z" fill="#28424b" stroke="#222"></path><path d="M527.3 100L405.7 80L493.3 204Z" fill="#284e5a" stroke="#222"></path><path d="M173.3 364L212.3 467L281 425Z" fill="#222222" stroke="#222"></path><path d="M281 425L241.3 540L315 540Z" fill="#284e5a" stroke="#222"></path><path d="M672 244L708.7 188L632 167Z" fill="#26596a" stroke="#222"></path><path d="M632 167L648 71L527.3 100Z" fill="#275362" stroke="#222"></path><path d="M780.7 292L708.7 188L672 244Z" fill="#263236" stroke="#222"></path><path d="M247.3 242L173.3 364L334 359Z" fill="#284853" stroke="#222"></path><path d="M122.7 278L173.3 364L247.3 242Z" fill="#284e5a" stroke="#222"></path><path d="M212.3 467L241.3 540L281 425Z" fill="#27373d" stroke="#222"></path><path d="M213.3 97L236.3 142L315 122Z" fill="#283d44" stroke="#222"></path><path d="M315 122L236.3 142L318 208Z" fill="#28424b" stroke="#222"></path><path d="M766.7 457L677 334L601 465Z" fill="#28424b" stroke="#222"></path><path d="M677 334L780.7 292L672 244Z" fill="#252d2f" stroke="#222"></path><path d="M779.7 383L780.7 292L677 334Z" fill="#263236" stroke="#222"></path><path d="M632 540L766.7 457L601 465Z" fill="#275362" stroke="#222"></path><path d="M724.7 103L632 167L708.7 188Z" fill="#242729" stroke="#222"></path><path d="M724.7 103L648 71L632 167Z" fill="#222222" stroke="#222"></path><path d="M527.3 100L450.7 0L405.7 80Z" fill="#263236" stroke="#222"></path><path d="M632 540L752.7 540L766.7 457Z" fill="#284e5a" stroke="#222"></path><path d="M843.3 461L817.3 357L779.7 383Z" fill="#26596a" stroke="#222"></path><path d="M497.3 0L450.7 0L527.3 100Z" fill="#263236" stroke="#222"></path><path d="M290 0L213.3 97L315 122Z" fill="#263236" stroke="#222"></path><path d="M648 71L497.3 0L527.3 100Z" fill="#252d2f" stroke="#222"></path><path d="M779.7 383L817.3 357L780.7 292Z" fill="#284853" stroke="#222"></path><path d="M843.3 461L779.7 383L766.7 457Z" fill="#28424b" stroke="#222"></path><path d="M825.3 79L724.7 103L869.3 143Z" fill="#252d2f" stroke="#222"></path><path d="M648 71L665 0L497.3 0Z" fill="#284853" stroke="#222"></path><path d="M869.3 143L708.7 188L780.7 292Z" fill="#222222" stroke="#222"></path><path d="M137.7 189L122.7 278L247.3 242Z" fill="#27373d" stroke="#222"></path><path d="M173.3 364L103.7 391L212.3 467Z" fill="#28424b" stroke="#222"></path><path d="M212.3 467L144.7 540L241.3 540Z" fill="#242729" stroke="#222"></path><path d="M290 0L315 122L405.7 80Z" fill="#28424b" stroke="#222"></path><path d="M236.3 142L137.7 189L247.3 242Z" fill="#284e5a" stroke="#222"></path><path d="M213.3 97L137.7 189L236.3 142Z" fill="#283d44" stroke="#222"></path><path d="M122.7 278L103.7 391L173.3 364Z" fill="#222222" stroke="#222"></path><path d="M82.7 450L144.7 540L212.3 467Z" fill="#263236" stroke="#222"></path><path d="M450.7 0L290 0L405.7 80Z" fill="#284e5a" stroke="#222"></path><path d="M213.3 97L103.7 123L137.7 189Z" fill="#275362" stroke="#222"></path><path d="M820.3 540L843.3 461L766.7 457Z" fill="#284853" stroke="#222"></path><path d="M724.7 103L665 0L648 71Z" fill="#27373d" stroke="#222"></path><path d="M0 418L82.7 450L103.7 391Z" fill="#26596a" stroke="#222"></path><path d="M103.7 391L82.7 450L212.3 467Z" fill="#263236" stroke="#222"></path><path d="M0 341L103.7 391L122.7 278Z" fill="#222222" stroke="#222"></path><path d="M752.7 540L820.3 540L766.7 457Z" fill="#263236" stroke="#222"></path><path d="M960 382L873.3 258L817.3 357Z" fill="#27373d" stroke="#222"></path><path d="M817.3 357L873.3 258L780.7 292Z" fill="#263236" stroke="#222"></path><path d="M724.7 103L773.7 0L665 0Z" fill="#275362" stroke="#222"></path><path d="M290 0L229.3 0L213.3 97Z" fill="#26596a" stroke="#222"></path><path d="M136.7 0L103.7 123L213.3 97Z" fill="#283d44" stroke="#222"></path><path d="M0 258L0 341L122.7 278Z" fill="#252d2f" stroke="#222"></path><path d="M869.3 143L724.7 103L708.7 188Z" fill="#284e5a" stroke="#222"></path><path d="M873.3 258L869.3 143L780.7 292Z" fill="#252d2f" stroke="#222"></path><path d="M834.3 0L773.7 0L825.3 79Z" fill="#263236" stroke="#222"></path><path d="M825.3 79L773.7 0L724.7 103Z" fill="#242729" stroke="#222"></path><path d="M0 258L122.7 278L0 207Z" fill="#222222" stroke="#222"></path><path d="M82.7 450L0 540L144.7 540Z" fill="#252d2f" stroke="#222"></path><path d="M0 341L0 418L103.7 391Z" fill="#275362" stroke="#222"></path><path d="M0 207L122.7 278L137.7 189Z" fill="#26596a" stroke="#222"></path><path d="M229.3 0L136.7 0L213.3 97Z" fill="#28424b" stroke="#222"></path><path d="M103.7 123L0 207L137.7 189Z" fill="#263236" stroke="#222"></path><path d="M0 77L0 207L103.7 123Z" fill="#283d44" stroke="#222"></path><path d="M843.3 461L960 382L817.3 357Z" fill="#284e5a" stroke="#222"></path><path d="M873.3 258L960 176L869.3 143Z" fill="#26596a" stroke="#222"></path><path d="M960 453L960 382L843.3 461Z" fill="#242729" stroke="#222"></path><path d="M960 382L960 240L873.3 258Z" fill="#252d2f" stroke="#222"></path><path d="M960 63L834.3 0L825.3 79Z" fill="#263236" stroke="#222"></path><path d="M960 63L825.3 79L869.3 143Z" fill="#26596a" stroke="#222"></path><path d="M960 540L960 453L843.3 461Z" fill="#275362" stroke="#222"></path><path d="M0 418L0 540L82.7 450Z" fill="#283d44" stroke="#222"></path><path d="M960 240L960 176L873.3 258Z" fill="#284853" stroke="#222"></path><path d="M820.3 540L960 540L843.3 461Z" fill="#275362" stroke="#222"></path><path d="M136.7 0L0 77L103.7 123Z" fill="#242729" stroke="#222"></path><path d="M960 176L960 63L869.3 143Z" fill="#28424b" stroke="#222"></path><path d="M136.7 0L0 0L0 77Z" fill="#222222" stroke="#222"></path><path d="M960 63L960 0L834.3 0Z" fill="#252d2f" stroke="#222"></path></g></svg>